<?xml version="1.0" encoding="UTF-8"?>
<svg width="15px" height="13px" viewBox="0 0 15 13" version="1.1" xmlns="http://www.w3.org/2000/svg" xmlns:xlink="http://www.w3.org/1999/xlink">
    <title>Grommet/Checkmark/White</title>
    <g id="Page-1" stroke="none" stroke-width="1" fill="none" fill-rule="evenodd">
        <g id="Select-Items" transform="translate(-629.000000, -688.000000)" fill="#000000" fill-rule="nonzero">
            <g id="Group" transform="translate(629.000000, 688.000000)">
                <g id="checkmark-(2)" transform="translate(0.000000, 0.764706)">
                    <path d="M14.8619366,0.0923112675 C14.6977288,-0.045342567 14.4490295,-0.0269830471 14.3053587,0.133598905 L5.10884585,10.525456 L0.673625305,6.22955541 C0.519671385,6.08043751 0.26941936,6.08043751 0.11546544,6.22955541 C-0.0384884801,6.3786733 -0.0384884801,6.62106436 0.11546544,6.77018226 L4.85226575,11.3581894 C4.92647418,11.4293006 5.02751834,11.4698221 5.13172654,11.4698221 C5.1364726,11.4698221 5.14198037,11.4698221 5.14751744,11.4705882 C5.25726271,11.4659913 5.3606799,11.4170704 5.43172428,11.3367652 L14.9053542,0.631405794 C15.0466813,0.470823842 15.0277263,0.229936726 14.8619366,0.0923112675 Z" id="Path"></path>
                </g>
            </g>
        </g>
    </g>
</svg>